<svg width="67" height="15" viewBox="0 0 67 15" fill="none" xmlns="http://www.w3.org/2000/svg">
  <path
    d="M10.3187 1.77865C10.0696 1.44274 9.56049 1.17728 9.01072 1.08548C9.09408 0.71533 8.93828 0.319375 8.59095 0.119412C8.1672 -0.126199 7.62289 0.0191829 7.37777 0.444413C7.32915 0.528269 7.0101 1.15148 6.53327 2.08877C5.71655 1.91312 4.90727 1.75136 4.23841 1.69381C3.6023 1.63873 2.74192 1.63427 2.61291 2.22969C2.43726 3.03896 3.62066 4.03927 5.00105 5.10706C4.69441 5.71291 4.37437 6.34554 4.04986 6.98661C2.98306 6.48547 2.11276 6.18031 1.72772 6.57924C1.18936 7.13696 1.6647 7.94574 2.21398 8.88254C2.37077 9.14948 2.53203 9.42487 2.67593 9.70422C1.22458 12.5742 0 15 0 15C0 15 1.34714 12.9433 2.99348 10.4267C3.25944 11.1888 3.26936 11.9569 2.59157 12.6575C2.53501 12.7161 2.5365 12.8098 2.59505 12.8669C2.60448 12.8753 2.6139 12.8828 2.62432 12.8882C2.68188 12.921 2.7568 12.9125 2.80444 12.8629C3.65192 11.9862 3.56013 11.0261 3.19345 10.12C3.71196 9.32712 4.25479 8.497 4.79166 7.67482C4.80307 7.68078 4.81448 7.68623 4.8249 7.69169C6.37995 8.46028 7.84816 9.1862 8.26892 8.4315C8.68473 7.68772 7.52812 6.68692 6.13979 5.6097C6.87315 4.48634 7.53506 3.47065 8.02976 2.71049C9.24541 2.95561 10.02 3.04045 10.2775 2.75217C10.5434 2.45793 10.5578 2.10316 10.3187 1.77865ZM2.83867 9.3807C2.7181 9.15841 2.59108 8.94059 2.46902 8.73318C1.98077 7.90058 1.55802 7.18161 1.94008 6.78566C2.19215 6.52466 3.03417 6.84173 3.9154 7.25157C3.55467 7.96559 3.19146 8.68257 2.83867 9.3807ZM8.01091 8.28761C7.72709 8.7962 6.1909 8.03654 4.95639 7.42722L4.9549 7.42673C5.30273 6.89432 5.64658 6.36787 5.97754 5.86077C7.17384 6.78963 8.30763 7.75669 8.01091 8.28761ZM5.137 4.83912C3.93326 3.90481 2.76524 2.91988 2.90169 2.29369C2.96123 2.02228 3.40184 1.91957 4.21261 1.98953C4.84376 2.04461 5.61334 2.19595 6.39384 2.36316C6.03708 3.06477 5.6054 3.91523 5.137 4.83912ZM7.44774 2.28824C7.40159 2.27782 7.35644 2.26839 7.31228 2.25847C7.18327 2.02923 7.64671 0.867659 7.76281 0.666704C7.88488 0.454337 8.15728 0.381398 8.36965 0.503956C8.56316 0.615101 8.63213 0.846819 8.55373 1.04777C8.29969 1.05472 8.04961 1.10136 7.82484 1.20606C7.75041 1.24029 7.71766 1.32812 7.75239 1.40255C7.78564 1.47648 7.87495 1.50923 7.94888 1.47449C8.07392 1.41644 8.21186 1.38468 8.35228 1.36434C8.10469 1.68885 7.68144 2.18354 7.44774 2.28824ZM10.0587 2.55568C9.89889 2.73331 9.09458 2.61969 8.20293 2.44404C8.5845 1.85755 8.83358 1.47052 8.89957 1.36186C9.39229 1.42884 9.86118 1.65907 10.08 1.9553C10.2373 2.16766 10.2303 2.36366 10.0587 2.55568Z"
    fill="black" />
  <path
    d="M18.5568 6.92045L17.6534 7.17614C17.5966 7.02557 17.5128 6.87926 17.402 6.73722C17.294 6.59233 17.1463 6.47301 16.9588 6.37926C16.7713 6.28551 16.5312 6.23864 16.2386 6.23864C15.8381 6.23864 15.5043 6.33097 15.2372 6.51562C14.973 6.69744 14.8409 6.92898 14.8409 7.21023C14.8409 7.46023 14.9318 7.65767 15.1136 7.80256C15.2955 7.94744 15.5795 8.06818 15.9659 8.16477L16.9375 8.40341C17.5227 8.54545 17.9588 8.76278 18.2457 9.0554C18.5327 9.34517 18.6761 9.71875 18.6761 10.1761C18.6761 10.5511 18.5682 10.8864 18.3523 11.1818C18.1392 11.4773 17.8409 11.7102 17.4574 11.8807C17.0739 12.0511 16.6278 12.1364 16.1193 12.1364C15.4517 12.1364 14.8991 11.9915 14.4616 11.7017C14.0241 11.4119 13.7472 10.9886 13.6307 10.4318L14.5852 10.1932C14.6761 10.5455 14.848 10.8097 15.1009 10.9858C15.3565 11.1619 15.6903 11.25 16.1023 11.25C16.571 11.25 16.9432 11.1506 17.2188 10.9517C17.4972 10.75 17.6364 10.5085 17.6364 10.2273C17.6364 10 17.5568 9.80966 17.3977 9.65625C17.2386 9.5 16.9943 9.38352 16.6648 9.30682L15.5739 9.05114C14.9744 8.90909 14.5341 8.68892 14.2528 8.39062C13.9744 8.08949 13.8352 7.71307 13.8352 7.26136C13.8352 6.89205 13.9389 6.56534 14.1463 6.28125C14.3565 5.99716 14.642 5.77415 15.0028 5.61222C15.3665 5.45028 15.7784 5.36932 16.2386 5.36932C16.8864 5.36932 17.3949 5.51136 17.7642 5.79545C18.1364 6.07955 18.4006 6.45455 18.5568 6.92045ZM23.0366 5.45455V6.30682H19.6445V5.45455H23.0366ZM20.6332 3.88636H21.6388V10.125C21.6388 10.4091 21.68 10.6222 21.7624 10.7642C21.8477 10.9034 21.9556 10.9972 22.0863 11.0455C22.2198 11.0909 22.3604 11.1136 22.5082 11.1136C22.619 11.1136 22.7099 11.108 22.7809 11.0966C22.8519 11.0824 22.9087 11.071 22.9513 11.0625L23.1559 11.9659C23.0877 11.9915 22.9925 12.017 22.8704 12.0426C22.7482 12.071 22.5934 12.0852 22.4059 12.0852C22.1218 12.0852 21.8434 12.0241 21.5707 11.902C21.3008 11.7798 21.0763 11.5938 20.8974 11.3438C20.7212 11.0938 20.6332 10.7784 20.6332 10.3977V3.88636ZM24.5494 12V5.45455H25.555V12H24.5494ZM25.0607 4.36364C24.8647 4.36364 24.6957 4.29688 24.5536 4.16335C24.4144 4.02983 24.3448 3.86932 24.3448 3.68182C24.3448 3.49432 24.4144 3.33381 24.5536 3.20028C24.6957 3.06676 24.8647 3 25.0607 3C25.2567 3 25.4244 3.06676 25.5636 3.20028C25.7056 3.33381 25.7766 3.49432 25.7766 3.68182C25.7766 3.86932 25.7056 4.02983 25.5636 4.16335C25.4244 4.29688 25.2567 4.36364 25.0607 4.36364ZM30.2436 5.45455V6.30682H26.8516V5.45455H30.2436ZM27.8402 3.88636H28.8459V10.125C28.8459 10.4091 28.8871 10.6222 28.9695 10.7642C29.0547 10.9034 29.1626 10.9972 29.2933 11.0455C29.4268 11.0909 29.5675 11.1136 29.7152 11.1136C29.826 11.1136 29.9169 11.108 29.9879 11.0966C30.0589 11.0824 30.1158 11.071 30.1584 11.0625L30.3629 11.9659C30.2947 11.9915 30.1996 12.017 30.0774 12.0426C29.9553 12.071 29.8004 12.0852 29.6129 12.0852C29.3288 12.0852 29.0504 12.0241 28.7777 11.902C28.5078 11.7798 28.2834 11.5938 28.1044 11.3438C27.9283 11.0938 27.8402 10.7784 27.8402 10.3977V3.88636ZM34.3452 12.1364C33.7315 12.1364 33.2031 11.9915 32.7599 11.7017C32.3168 11.4119 31.9759 11.0128 31.7372 10.5043C31.4986 9.99574 31.3793 9.41477 31.3793 8.76136C31.3793 8.09659 31.5014 7.50994 31.7457 7.00142C31.9929 6.49006 32.3366 6.09091 32.777 5.80398C33.2202 5.5142 33.7372 5.36932 34.3281 5.36932C34.7884 5.36932 35.2031 5.45455 35.5724 5.625C35.9418 5.79545 36.2443 6.03409 36.4801 6.34091C36.7159 6.64773 36.8622 7.00568 36.919 7.41477H35.9134C35.8366 7.11648 35.6662 6.85227 35.402 6.62216C35.1406 6.3892 34.7884 6.27273 34.3452 6.27273C33.9531 6.27273 33.6094 6.375 33.3139 6.57955C33.0213 6.78125 32.7926 7.06676 32.6278 7.43608C32.4659 7.80256 32.3849 8.23295 32.3849 8.72727C32.3849 9.23295 32.4645 9.6733 32.6236 10.0483C32.7855 10.4233 33.0128 10.7145 33.3054 10.9219C33.6009 11.1293 33.9474 11.233 34.3452 11.233C34.6065 11.233 34.8438 11.1875 35.0568 11.0966C35.2699 11.0057 35.4503 10.875 35.598 10.7045C35.7457 10.5341 35.8509 10.3295 35.9134 10.0909H36.919C36.8622 10.4773 36.7216 10.8253 36.4972 11.1349C36.2756 11.4418 35.9815 11.6861 35.6151 11.8679C35.2514 12.0469 34.8281 12.1364 34.3452 12.1364ZM39.3949 8.0625V12H38.3892V3.27273H39.3949V6.47727H39.4801C39.6335 6.1392 39.8636 5.87074 40.1705 5.67188C40.4801 5.47017 40.892 5.36932 41.4062 5.36932C41.8523 5.36932 42.2429 5.45881 42.5781 5.63778C42.9134 5.81392 43.1733 6.08523 43.358 6.4517C43.5455 6.81534 43.6392 7.27841 43.6392 7.84091V12H42.6335V7.90909C42.6335 7.3892 42.4986 6.98722 42.2287 6.70312C41.9616 6.41619 41.5909 6.27273 41.1165 6.27273C40.7869 6.27273 40.4915 6.34233 40.2301 6.48153C39.9716 6.62074 39.767 6.82386 39.6165 7.09091C39.4688 7.35795 39.3949 7.68182 39.3949 8.0625ZM46.962 12L44.9677 5.45455H46.0245L47.4393 10.4659H47.5075L48.9052 5.45455H49.979L51.3597 10.4489H51.4279L52.8427 5.45455H53.8995L51.9052 12H50.9165L49.4847 6.97159H49.3825L47.9506 12H46.962ZM57.7507 12.1364C57.12 12.1364 56.576 11.9972 56.1186 11.7188C55.6641 11.4375 55.3132 11.0455 55.0661 10.5426C54.8217 10.0369 54.6996 9.44886 54.6996 8.77841C54.6996 8.10795 54.8217 7.51705 55.0661 7.00568C55.3132 6.49148 55.657 6.09091 56.0973 5.80398C56.5405 5.5142 57.0575 5.36932 57.6484 5.36932C57.9893 5.36932 58.326 5.42614 58.6584 5.53977C58.9908 5.65341 59.2933 5.83807 59.5661 6.09375C59.8388 6.34659 60.0561 6.68182 60.218 7.09943C60.38 7.51705 60.4609 8.03125 60.4609 8.64205V9.06818H55.4155V8.19886H59.4382C59.4382 7.82955 59.3643 7.5 59.2166 7.21023C59.0717 6.92045 58.8643 6.69176 58.5945 6.52415C58.3274 6.35653 58.0121 6.27273 57.6484 6.27273C57.2479 6.27273 56.9013 6.37216 56.6087 6.57102C56.3189 6.76705 56.0959 7.02273 55.9396 7.33807C55.7834 7.65341 55.7053 7.99148 55.7053 8.35227V8.93182C55.7053 9.42614 55.7905 9.84517 55.9609 10.1889C56.1342 10.5298 56.3743 10.7898 56.6811 10.9688C56.9879 11.1449 57.3445 11.233 57.7507 11.233C58.0149 11.233 58.2536 11.196 58.4666 11.1222C58.6825 11.0455 58.8686 10.9318 59.0249 10.7812C59.1811 10.6278 59.3018 10.4375 59.3871 10.2102L60.3587 10.483C60.2564 10.8125 60.0845 11.1023 59.843 11.3523C59.6016 11.5994 59.3033 11.7926 58.9482 11.9318C58.593 12.0682 58.1939 12.1364 57.7507 12.1364ZM62.9964 3.27273V12H61.9908V3.27273H62.9964ZM65.8441 3.27273V12H64.8384V3.27273H65.8441Z"
    fill="black" />
</svg>